<svg class="logo" height="34" width="246" xmlns="http://www.w3.org/2000/svg"><path d="M245.982 6.045L246 1.089a.836.836 0 0 0-.837-.84h-25.439a.84.84 0 0 0-.596.25l-6.048 6.135a.836.836 0 0 0-.24.587v5.955c0 .219.085.429.238.585l6.027 6.156a.834.834 0 0 0 .597.252h18.866c.462 0 .836.374.836.836v4.943a.836.836 0 0 1-.836.837h-24.91a.836.836 0 0 0-.836.836v5.003c0 .46.374.836.836.836h25.397c.223 0 .438-.09.595-.25l6.097-6.181a.84.84 0 0 0 .24-.588v-5.928a.837.837 0 0 0-.24-.588l-6.097-6.16a.84.84 0 0 0-.595-.248h-18.727a.836.836 0 0 1-.837-.836V7.715c0-.462.375-.837.837-.837h24.818a.836.836 0 0 0 .836-.833zm-47.27.833h-18.187a.837.837 0 0 0-.836.837v18.233c0 .462.375.837.836.837h18.187a.836.836 0 0 0 .836-.837V7.715a.836.836 0 0 0-.836-.837zM199.84.495l6.14 6.138c.156.157.244.37.244.592V26.44c0 .22-.088.433-.244.589l-6.163 6.185a.838.838 0 0 1-.592.246H179.99a.834.834 0 0 1-.593-.247l-6.135-6.184a.835.835 0 0 1-.242-.588V7.228c0-.224.09-.438.25-.595L179.491.49a.834.834 0 0 1 .588-.241h19.17c.221 0 .434.088.59.245zM40.332 7.228v19.207c0 .223.09.438.25.595l6.198 6.096c.157.154.367.24.587.24h25.3a.836.836 0 0 0 .835-.836v-4.91a.836.836 0 0 0-.836-.835H47.804a.837.837 0 0 1-.837-.837v-4.943c0-.462.375-.836.837-.836h24.862a.836.836 0 0 0 .836-.837v-4.978a.836.836 0 0 0-.836-.836H47.804a.837.837 0 0 1-.837-.837V7.715c0-.462.375-.837.837-.837H72.67c.46 0 .834-.372.836-.833l.018-4.956a.837.837 0 0 0-.836-.84H47.391a.832.832 0 0 0-.587.242l-6.223 6.142a.836.836 0 0 0-.249.595zm40.67-.35h11.563c.462 0 .836.375.836.837v18.233a.836.836 0 0 1-.836.837H81a.836.836 0 0 0-.836.836v4.926c0 .462.374.836.836.836h31.462a.836.836 0 0 0 .836-.836V27.62a.836.836 0 0 0-.836-.836H100.89a.836.836 0 0 1-.836-.837V7.715c0-.462.374-.837.836-.837h11.574a.836.836 0 0 0 .837-.833l.017-4.956a.836.836 0 0 0-.836-.84h-31.46a.835.835 0 0 0-.837.834l-.018 4.956a.836.836 0 0 0 .836.839zM147.365.25a.837.837 0 0 0-.837.826l-.013 1.2v3.766c0 .462.374.836.836.836h11.575c.462 0 .836.375.836.837v24.887c0 .462.375.836.836.836h4.98a.836.836 0 0 0 .836-.836V7.225a.837.837 0 0 0-.245-.592L160.031.495a.837.837 0 0 0-.59-.245h-12.076zM26.2 6.878H7.991a.836.836 0 0 0-.836.837v18.233c0 .462.374.837.836.837h18.21a.837.837 0 0 0 .836-.837V7.715a.837.837 0 0 0-.837-.837zM27.305.494l6.157 6.139c.158.157.246.37.246.593l-.018 19.207c0 .224-.092.44-.253.597l-6.265 6.099a.837.837 0 0 1-.584.237H1.371a.836.836 0 0 1-.836-.837L.557 1.085c0-.461.375-.835.836-.835h25.321c.222 0 .435.088.591.244zm112.826 0l6.14 6.139c.155.157.244.37.244.592v25.322a.836.836 0 0 1-.837.836H140.7a.836.836 0 0 1-.836-.836V7.715a.836.836 0 0 0-.836-.837h-11.574a.836.836 0 0 0-.836.837v24.832a.836.836 0 0 1-.836.836h-4.979a.836.836 0 0 1-.837-.836V7.227c0-.223.09-.437.247-.594l6.184-6.141a.837.837 0 0 1 .59-.242h12.554c.222 0 .435.088.591.245z" fill="#DDD" fill-rule="evenodd"></path></svg>
