<svg width="121" height="31" viewBox="0 0 121 31" fill="none" xmlns="http://www.w3.org/2000/svg">
  <path d="M38.453 8C42.2182 8 44 10.2086 44 13.2925C43.9585 14.1762 43.8041 15.0512 43.5405 15.8964H32.9354C32.8781 16.1757 32.849 16.4599 32.8486 16.7449C32.8281 17.2792 32.9231 17.8116 33.1271 18.3065C33.3311 18.8014 33.6393 19.2474 34.0313 19.6145C34.4233 19.9816 34.8898 20.2614 35.3997 20.4351C35.9096 20.6088 36.451 20.6724 36.9878 20.6216C38.663 20.5332 40.2737 19.9521 41.6146 18.9524L42.4187 21.132C40.8005 22.2915 38.8685 22.9423 36.8729 23C32.6201 23 30.0049 20.4531 30.0049 16.8868C29.9666 15.752 30.1552 14.621 30.5598 13.5589C30.9645 12.4969 31.5772 11.5247 32.3625 10.6986C33.1479 9.87245 34.0904 9.20866 35.1358 8.7455C36.1811 8.28233 37.3085 8.02898 38.453 8ZM41.1492 13.8307C41.1891 13.5785 41.2083 13.3235 41.2066 13.0682C41.248 12.6874 41.2046 12.3023 41.0792 11.94C40.9539 11.5778 40.7498 11.2472 40.4814 10.9718C40.213 10.6965 39.8868 10.483 39.526 10.3465C39.1651 10.2099 38.7785 10.1538 38.3933 10.1819C37.2848 10.2165 36.213 10.5841 35.3198 11.2361C34.4266 11.8881 33.7541 12.7937 33.3914 13.833L41.1492 13.8307Z" fill="#292E1E"></path>
  <path d="M45.9907 26.5363C46.6696 26.4907 47.3241 26.2686 47.8875 25.8925C48.4508 25.5164 48.9029 24.9998 49.1976 24.3954L50.3065 22.6353L46.8293 8H49.8567L51.8936 18.0307C52.0428 18.7933 52.1381 19.7909 52.1381 19.7909H52.1687C52.1687 19.7909 52.6173 18.8271 53.0379 18.0898L58.7331 8H62L51.3629 25.5688C50.8739 26.5462 50.1309 27.3785 49.2097 27.9811C48.2884 28.5838 47.2217 28.9353 46.1178 29C45.0032 28.9993 43.9153 28.663 43 28.0362L44.3449 26.0122C44.8206 26.3594 45.3987 26.5435 45.9907 26.5363Z" fill="#292E1E"></path>
  <path d="M71.0568 8C75.1368 8 78 10.5467 78 14.2545C77.9279 16.5765 76.9492 18.7816 75.2676 20.4107C73.586 22.0398 71.3311 22.9673 68.9726 23C64.8643 23 62 20.4242 62 16.6908C62.0765 14.3702 63.0624 12.169 64.751 10.5487C66.4395 8.92841 68.6994 8.015 71.0568 8ZM68.9974 20.623C70.6339 20.5531 72.1815 19.8693 73.3226 18.7118C74.4636 17.5542 75.1119 16.0107 75.1345 14.3975C75.1573 13.8615 75.0663 13.3266 74.8675 12.8271C74.6688 12.3275 74.3665 11.8743 73.9799 11.4962C73.5934 11.1181 73.1311 10.8236 72.6225 10.6313C72.114 10.439 71.5702 10.3532 71.0261 10.3793C69.3865 10.4327 67.8311 11.1068 66.6833 12.2612C65.5356 13.4155 64.8841 14.9614 64.8644 16.5769C64.8394 17.1169 64.9295 17.6559 65.1287 18.1596C65.3279 18.6632 65.6318 19.1203 66.0211 19.5013C66.4103 19.8824 66.8763 20.179 67.3888 20.3722C67.9014 20.5654 68.4493 20.6508 68.9974 20.623Z" fill="#292E1E"></path>
  <path d="M81 8H83.8735L84.9421 18.5836C84.9964 19.1155 85.016 19.6504 85.0012 20.1848H85.0605C85.0605 20.1848 85.4172 19.324 85.7727 18.5836L91.0467 8.02921H93.7136L94.8705 18.5836C94.9298 19.2058 94.96 20.1848 94.96 20.1848H95.0193C95.2185 19.6394 95.446 19.1049 95.7011 18.5836L100.917 8H104L96.2633 23H93.0912L91.846 13.3064C91.7577 12.5357 91.7577 11.7053 91.7577 11.7053H91.6984C91.6984 11.7053 91.343 12.5357 90.9573 13.3064L86.0108 23H82.8977L81 8Z" fill="#292E1E"></path>
  <path d="M114.056 8C118.136 8 121 10.5467 121 14.2545C120.928 16.5764 119.949 18.7814 118.267 20.4104C116.586 22.0394 114.331 22.967 111.973 23C107.864 23 105 20.4242 105 16.6908C105.076 14.3702 106.062 12.1688 107.75 10.5484C109.438 8.92807 111.698 8.01472 114.056 8ZM112.001 20.623C113.638 20.5531 115.185 19.8693 116.326 18.7118C117.467 17.5542 118.115 16.0107 118.138 14.3975C118.161 13.8615 118.07 13.3266 117.871 12.8271C117.672 12.3275 117.37 11.8743 116.983 11.4962C116.597 11.1181 116.135 10.8236 115.626 10.6313C115.117 10.439 114.574 10.3532 114.03 10.3793C112.39 10.4325 110.834 11.1063 109.686 12.2608C108.538 13.4152 107.886 14.9612 107.867 16.5769C107.842 17.1169 107.932 17.6561 108.131 18.1597C108.331 18.6633 108.635 19.1204 109.024 19.5014C109.414 19.8824 109.879 20.179 110.392 20.3722C110.905 20.5653 111.453 20.6508 112.001 20.623Z" fill="#292E1E"></path>
  <path d="M14.6177 1.55545C14.6177 1.55545 15.5157 -2.35748 18.884 2.22904C18.884 2.22904 24.3035 7.79467 22.7051 14.7901C22.3543 16.2922 21.8139 17.7492 21.0953 19.13C19.8898 21.4305 18.2187 23.4864 16.1761 25.1817L11.7985 28.9259C11.7985 28.9259 7.15068 31.7878 8.13752 28.1686C8.13752 28.1686 8.18634 26.6692 8.9618 26.3708C9.14421 26.282 9.30414 26.1572 9.43064 26.0048C9.55715 25.8523 9.64723 25.6759 9.69474 25.4876C9.74225 25.2993 9.74604 25.1035 9.70589 24.9137C9.66573 24.7239 9.58259 24.5445 9.4621 24.3878C9.4621 24.3878 8.99679 23.5337 10.3163 22.7775C10.4753 22.6981 10.6142 22.5874 10.7236 22.4527C10.833 22.3181 10.9104 22.1628 10.9504 21.9974C10.9904 21.8321 10.9921 21.6605 10.9555 21.4944C10.9188 21.3284 10.8446 21.1717 10.7379 21.0352C10.6749 20.6808 10.7391 20.3167 10.9204 20.0007C11.1016 19.6847 11.3896 19.4347 11.7385 19.2905C11.7385 19.2905 12.7453 19.1513 12.1599 17.5481C12.1599 17.5481 12.0349 16.5312 12.8729 16.3401C12.8729 16.3401 14.0811 16.1726 13.008 14.8667C13.008 14.8667 12.3688 13.9596 13.6609 13.2836C13.6609 13.2836 14.4951 13.0913 13.5646 11.651C13.5646 11.651 13.0142 11.0387 14.2187 10.3357C14.2187 10.3357 14.8791 10.0915 14.1812 8.81036C14.1812 8.81036 13.5683 7.5552 14.5739 7.14822C14.5739 7.14822 15.3244 6.6622 14.7653 5.51439C14.7565 5.51675 14.0486 2.62894 14.6177 1.55545Z" fill="#C9874A"></path>
  <path d="M14.6177 1.55545C14.6177 1.55545 15.5157 -2.35748 18.884 2.22904C18.884 2.22904 24.3035 7.79467 22.7051 14.7901C22.3543 16.2922 21.8139 17.7492 21.0953 19.13C19.8898 21.4305 18.2187 23.4864 16.1761 25.1817L11.7985 28.9259C11.7985 28.9259 7.15068 31.7878 8.13752 28.1686C8.13752 28.1686 8.18634 26.6692 8.9618 26.3708C9.14421 26.282 9.30414 26.1572 9.43064 26.0048C9.55715 25.8523 9.64723 25.6759 9.69474 25.4876C9.74225 25.2993 9.74604 25.1035 9.70589 24.9137C9.66573 24.7239 9.58259 24.5445 9.4621 24.3878C9.4621 24.3878 8.99679 23.5337 10.3163 22.7775C10.4753 22.6981 10.6142 22.5874 10.7236 22.4527C10.833 22.3181 10.9104 22.1628 10.9504 21.9974C10.9904 21.8321 10.9921 21.6605 10.9555 21.4944C10.9188 21.3284 10.8446 21.1717 10.7379 21.0352C10.6749 20.6808 10.7391 20.3167 10.9204 20.0007C11.1016 19.6847 11.3896 19.4347 11.7385 19.2905C11.7385 19.2905 12.7453 19.1513 12.1599 17.5481C12.1599 17.5481 12.0349 16.5312 12.8729 16.3401C12.8729 16.3401 14.0811 16.1726 13.008 14.8667C13.008 14.8667 12.3688 13.9596 13.6609 13.2836C13.6609 13.2836 14.4951 13.0913 13.5646 11.651C13.5646 11.651 13.0142 11.0387 14.2187 10.3357C14.2187 10.3357 14.8791 10.0915 14.1812 8.81036C14.1812 8.81036 13.5683 7.5552 14.5739 7.14822C14.5739 7.14822 15.3244 6.6622 14.7653 5.51439C14.7565 5.51675 14.0486 2.62894 14.6177 1.55545Z" fill="#C9874A"></path>
  <path d="M12.5128 2.61959C12.5128 2.61959 13.3943 0.585835 11.5548 1.07634C9.71531 1.56684 6.18423 4.28165 6.18423 4.28165C6.18423 4.28165 0.675415 7.08822 0 15.5844C0 15.5844 0.107921 24.2311 2.7538 27.8998L5.05773 30.9299C5.05773 30.9299 6.09329 31.431 6.39158 29.7536L7.1822 26.6271C7.25005 26.4409 7.36013 26.2719 7.50431 26.1324C7.64848 25.993 7.82309 25.8867 8.01525 25.8214C8.01525 25.8214 8.74281 25.6038 7.95098 24.3805C7.95098 24.3805 7.72423 23.6877 8.69794 23.283C8.8337 23.2438 8.95823 23.1745 9.06172 23.0807C9.25542 22.8198 9.36364 22.5083 9.37229 22.1869C9.38094 21.8655 9.28962 21.549 9.11022 21.2787C9.04579 20.7634 9.03685 20.243 9.08354 19.726C9.21006 18.4261 9.66848 17.1774 10.4174 16.0925C10.4174 16.0925 14.1764 9.98771 12.6243 6.92589C12.051 5.55087 12.0114 4.02081 12.5128 2.61959Z" fill="#C9874A"></path>
  <path opacity="0.04" d="M4.91933 16.3177C4.94871 16.2949 4.97094 16.268 4.98456 16.2386C4.99818 16.2092 5.00287 16.1781 4.99831 16.1473C4.98433 16.1138 4.95879 16.0833 4.92404 16.0587C4.88929 16.034 4.84644 16.016 4.79941 16.0062C4.66048 15.978 4.6166 16.0522 4.36068 16.093C4.18226 16.1212 4.09598 16.1024 3.8035 16.1515C3.72014 16.1661 3.65726 16.1797 3.6441 16.2079C3.63094 16.2362 3.6909 16.2612 3.84299 16.3501C4.02872 16.4546 4.04479 16.4723 4.04186 16.4922C4.04186 16.557 3.80058 16.5967 3.726 16.6061C3.53442 16.6375 3.42179 16.6208 3.16879 16.6657C3.06788 16.6835 3.02256 16.696 3.00939 16.7221C2.96698 16.7859 3.07666 16.8987 3.16879 16.9499C3.62068 17.184 4.69119 16.533 4.91933 16.3177Z" fill="#292E1E"></path>
  <path opacity="0.04" d="M4 15.2931C4 15.5715 3.01752 15.653 1.77597 15.9729C1.63516 16.009 1.48713 16.009 1.34632 15.9729C1.29577 15.9591 1.03988 15.8914 1.00197 15.7253C0.99683 15.68 1.00178 15.6341 1.0165 15.5909C1.03122 15.5476 1.05537 15.5079 1.08727 15.4745C1.3937 15.1208 2.12821 15.6838 2.84376 15.3392C3.14388 15.1946 3.24339 14.9854 3.52771 15.0008C3.74096 15.0162 3.99842 15.1515 4 15.2931Z" fill="#292E1E"></path>
</svg>
