<?xml version="1.0" encoding="UTF-8" standalone="no"?><!DOCTYPE svg PUBLIC "-//W3C//DTD SVG 1.1//EN" "http://www.w3.org/Graphics/SVG/1.1/DTD/svg11.dtd"><svg width="100%" height="100%" viewBox="0 0 147 26" version="1.1" xmlns="http://www.w3.org/2000/svg" xmlns:xlink="http://www.w3.org/1999/xlink" xml:space="preserve" xmlns:serif="http://www.serif.com/" style="fill-rule:evenodd;clip-rule:evenodd;stroke-linejoin:round;stroke-miterlimit:1.41421;"><path d="M9.264,12.82l-2.002,-0.271c-0.726,-0.114 -1.216,-0.3 -1.477,-0.561c-0.261,-0.258 -0.39,-0.627 -0.39,-1.103c0,-0.451 0.181,-0.813 0.542,-1.084c0.362,-0.271 0.974,-0.408 1.834,-0.408c0.746,0 1.477,0.165 2.187,0.493c0.713,0.328 1.354,0.775 1.919,1.341l2.885,-2.955c-0.452,-0.429 -0.912,-0.819 -1.373,-1.17c-0.466,-0.351 -0.975,-0.646 -1.53,-0.883c-0.553,-0.238 -1.188,-0.419 -1.901,-0.543c-0.71,-0.124 -1.531,-0.186 -2.458,-0.186c-1.064,0 -2.02,0.143 -2.869,0.424c-0.847,0.284 -1.574,0.679 -2.173,1.188c-0.599,0.509 -1.064,1.121 -1.389,1.834c-0.328,0.713 -0.493,1.498 -0.493,2.358c0,3.166 2.001,5 6.007,5.498l1.934,0.238c1.199,0.157 1.798,0.656 1.798,1.493c0,0.519 -0.191,0.932 -0.576,1.236c-0.385,0.308 -1.075,0.46 -2.069,0.46c-0.973,0 -1.846,-0.204 -2.614,-0.612c-0.769,-0.405 -1.472,-0.96 -2.104,-1.663l-2.952,2.988c0.927,1.018 1.978,1.803 3.156,2.358c1.175,0.555 2.624,0.832 4.344,0.832c1.154,0 2.2,-0.148 3.138,-0.442c0.94,-0.295 1.743,-0.705 2.409,-1.237c0.669,-0.532 1.183,-1.16 1.545,-1.885c0.361,-0.723 0.542,-1.516 0.542,-2.376c0,-3.053 -1.955,-4.84 -5.87,-5.362" style="fill:#ff2e2e;fill-rule:nonzero;"/><path d="M21.619,12.853c0,-1.108 0.29,-1.997 0.865,-2.663c0.576,-0.669 1.374,-1.002 2.394,-1.002c1.018,0 1.77,0.333 2.255,1.002c0.488,0.666 0.731,1.545 0.731,2.629l0,0.305l-6.245,0l0,-0.271Zm11.436,3.226l0,-1.496c0,-1.198 -0.152,-2.345 -0.457,-3.442c-0.305,-1.098 -0.793,-2.066 -1.459,-2.903c-0.669,-0.837 -1.526,-1.503 -2.58,-2.002c-1.051,-0.498 -2.315,-0.746 -3.784,-0.746c-1.335,0 -2.523,0.219 -3.564,0.661c-1.041,0.442 -1.916,1.069 -2.629,1.883c-0.713,0.816 -1.25,1.795 -1.611,2.936c-0.362,1.142 -0.545,2.415 -0.545,3.818c0,1.425 0.188,2.716 0.56,3.868c0.374,1.155 0.927,2.134 1.663,2.937c0.736,0.803 1.635,1.425 2.699,1.867c1.064,0.441 2.273,0.661 3.631,0.661c1.63,0 3.081,-0.261 4.362,-0.783c1.276,-0.521 2.312,-1.247 3.105,-2.177l-2.514,-3.132c-0.565,0.583 -1.174,1.084 -1.831,1.497c-0.655,0.416 -1.505,0.625 -2.546,0.625c-1.356,0 -2.353,-0.343 -2.985,-1.027c-0.633,-0.685 -0.951,-1.609 -0.951,-2.777l0,-0.268l11.436,0Z" style="fill:#ff2e2e;fill-rule:nonzero;"/><path d="M66.929,7.193l0,11.937c0,2.952 -2.182,5.397 -5.023,5.808c-0.277,0.042 -0.56,0.062 -0.85,0.062c-0.287,0 -0.571,-0.02 -0.847,-0.062c-2.841,-0.411 -5.023,-2.854 -5.023,-5.808l0,-6.174c0,-2.262 -0.817,-3.393 -2.444,-3.393c-0.746,0 -1.425,0.214 -2.037,0.643c-0.609,0.431 -0.917,1.087 -0.917,1.97l0,11.537l-5.021,0l0,-10.757c0,-2.262 -0.816,-3.393 -2.443,-3.393c-0.364,0 -0.72,0.049 -1.069,0.152c-0.351,0.101 -0.669,0.266 -0.951,0.491c-0.284,0.227 -0.508,0.504 -0.679,0.832c-0.17,0.327 -0.256,0.707 -0.256,1.138l0,11.537l-5.023,0l0,-14.977c0,-1.568 1.272,-2.84 2.841,-2.84l2.182,0l0,3.021l0.205,0c0.317,-0.95 0.86,-1.759 1.629,-2.428c0.77,-0.666 1.821,-0.999 3.156,-0.999c1.222,0 2.263,0.305 3.123,0.917c0.86,0.609 1.482,1.503 1.867,2.681l0.101,0c0.157,-0.499 0.402,-0.969 0.73,-1.411c0.329,-0.439 0.729,-0.818 1.204,-1.136c0.475,-0.315 1.007,-0.571 1.596,-0.762c0.586,-0.193 1.222,-0.289 1.901,-0.289c1.717,0 3.037,0.609 3.951,1.831c0.845,1.126 1.302,2.691 1.367,4.701c0.007,0.17 0.01,0.348 0.01,0.526l0,6.582c0,0.481 0.403,0.872 0.892,0.849c0.459,-0.023 0.805,-0.434 0.805,-0.894l0,-9.051c0,-1.57 1.272,-2.841 2.841,-2.841l2.182,0Z" style="fill:#ff2e2e;fill-rule:nonzero;"/><path d="M80.268,17.469c-0.248,0.726 -0.617,1.353 -1.103,1.885c-0.485,0.532 -1.227,0.798 -2.224,0.798c-1.017,0 -1.787,-0.333 -2.306,-0.999c-0.521,-0.664 -0.78,-1.56 -0.78,-2.689l0,-3.316c0,-1.126 0.259,-2.025 0.78,-2.688c0.519,-0.667 1.289,-1 2.306,-1c0.884,0 1.574,0.238 2.072,0.713c0.498,0.475 0.826,1.054 0.984,1.73l4.073,-1.764c-0.522,-1.469 -1.387,-2.613 -2.596,-3.427c-1.211,-0.816 -2.722,-1.222 -4.533,-1.222c-1.335,0 -2.523,0.215 -3.561,0.644c-1.041,0.431 -1.914,1.053 -2.613,1.867c-0.703,0.816 -1.235,1.795 -1.597,2.936c-0.361,1.142 -0.542,2.426 -0.542,3.851c0,1.426 0.181,2.717 0.542,3.869c0.362,1.154 0.894,2.133 1.597,2.937c0.699,0.803 1.572,1.425 2.613,1.867c1.038,0.441 2.226,0.661 3.561,0.661c1.767,0 3.265,-0.401 4.499,-1.198c1.232,-0.799 2.141,-2.051 2.73,-3.758l-3.902,-1.697Z" style="fill:#ff2e2e;fill-rule:nonzero;"/><path d="M96.934,16.622c0,1.131 -0.271,2.001 -0.814,2.614c-0.545,0.609 -1.314,0.916 -2.309,0.916c-0.997,0 -1.764,-0.307 -2.309,-0.916c-0.542,-0.613 -0.813,-1.483 -0.813,-2.614l0,-3.631c0,-1.132 0.271,-2.002 0.813,-2.614c0.545,-0.609 1.312,-0.917 2.309,-0.917c0.995,0 1.764,0.308 2.309,0.917c0.543,0.612 0.814,1.482 0.814,2.614l0,3.631Zm4.648,-5.703c-0.384,-1.151 -0.932,-2.13 -1.645,-2.933c-0.712,-0.803 -1.583,-1.421 -2.613,-1.852c-1.031,-0.429 -2.201,-0.643 -3.513,-0.643c-1.312,0 -2.481,0.214 -3.512,0.643c-1.031,0.431 -1.901,1.049 -2.614,1.852c-0.712,0.803 -1.26,1.782 -1.645,2.933c-0.385,1.155 -0.578,2.444 -0.578,3.87c0,1.425 0.193,2.716 0.578,3.868c0.385,1.154 0.933,2.138 1.645,2.955c0.713,0.813 1.583,1.436 2.614,1.864c1.031,0.432 2.2,0.646 3.512,0.646c1.312,0 2.482,-0.214 3.513,-0.646c1.03,-0.428 1.901,-1.051 2.613,-1.864c0.713,-0.817 1.261,-1.801 1.645,-2.955c0.385,-1.152 0.579,-2.443 0.579,-3.868c0,-1.426 -0.194,-2.715 -0.579,-3.87" style="fill:#ff2e2e;fill-rule:nonzero;"/><path d="M108.99,18.493l0,-18.493l-5.021,0l0,18.826c0,1.584 0.4,2.795 1.204,3.632c0.803,0.836 2.063,1.255 3.783,1.255l3.473,0l0,-3.903l-2.122,0c-0.727,0 -1.317,-0.589 -1.317,-1.317" style="fill:#ff2e2e;fill-rule:nonzero;"/><path d="M124.674,16.622c0,1.131 -0.271,2.001 -0.814,2.614c-0.542,0.609 -1.312,0.916 -2.309,0.916c-0.994,0 -1.764,-0.307 -2.306,-0.916c-0.545,-0.613 -0.816,-1.483 -0.816,-2.614l0,-3.631c0,-1.132 0.271,-2.002 0.816,-2.614c0.542,-0.609 1.312,-0.917 2.306,-0.917c0.997,0 1.767,0.308 2.309,0.917c0.543,0.612 0.814,1.482 0.814,2.614l0,3.631Zm4.648,-5.703c-0.384,-1.151 -0.932,-2.13 -1.645,-2.933c-0.712,-0.803 -1.583,-1.421 -2.613,-1.852c-1.028,-0.429 -2.201,-0.643 -3.513,-0.643c-1.312,0 -2.481,0.214 -3.512,0.643c-1.031,0.431 -1.901,1.049 -2.614,1.852c-0.712,0.803 -1.26,1.782 -1.645,2.933c-0.385,1.155 -0.576,2.444 -0.576,3.87c0,1.425 0.191,2.716 0.576,3.868c0.385,1.154 0.933,2.138 1.645,2.955c0.713,0.813 1.583,1.436 2.614,1.864c1.031,0.432 2.2,0.646 3.512,0.646c1.312,0 2.485,-0.214 3.513,-0.646c1.03,-0.428 1.901,-1.051 2.613,-1.864c0.713,-0.817 1.261,-1.801 1.645,-2.955c0.385,-1.152 0.579,-2.443 0.579,-3.868c0,-1.426 -0.194,-2.715 -0.579,-3.87" style="fill:#ff2e2e;fill-rule:nonzero;"/><path d="M145.531,7.321c-0.94,-1.222 -2.325,-1.831 -4.158,-1.831c-1.403,0 -2.5,0.338 -3.293,1.018c-0.79,0.679 -1.346,1.482 -1.663,2.409l-0.202,0l0,-3.021l-2.182,0c-1.569,0 -2.841,1.272 -2.841,2.841l0,14.976l5.023,0l0,-11.537c0,-0.431 0.09,-0.811 0.272,-1.138c0.18,-0.328 0.423,-0.605 0.728,-0.832c0.307,-0.225 0.65,-0.39 1.035,-0.491c0.385,-0.103 0.78,-0.152 1.188,-0.152c0.927,0 1.573,0.276 1.935,0.831c0.361,0.553 0.542,1.408 0.542,2.562l0,10.757l5.023,0l0,-11.164c0,-2.263 -0.47,-4.006 -1.407,-5.228" style="fill:#ff2e2e;fill-rule:nonzero;"/><path d="M66.929,5.682l-2.841,0c-1.569,0 -2.841,-1.272 -2.841,-2.841c0,-1.569 1.272,-2.841 2.841,-2.841c1.569,0 2.841,1.272 2.841,2.841l0,2.841Z" style="fill:#ff2e2e;fill-rule:nonzero;"/></svg>